<mxfile host="Electron" modified="2024-01-10T11:17:10.964Z" agent="Mozilla/5.0 (Windows NT 10.0; Win64; x64) AppleWebKit/537.36 (KHTML, like Gecko) draw.io/22.1.16 Chrome/120.0.6099.109 Electron/28.1.0 Safari/537.36" etag="fD_VxoYTQkW8p7GV_Dkf" version="22.1.16" type="device">
  <diagram name="Page-1" id="fZ-07UN7kWc-W8yK62nl">
    <mxGraphModel dx="2074" dy="1196" grid="0" gridSize="10" guides="1" tooltips="1" connect="1" arrows="1" fold="1" page="1" pageScale="1" pageWidth="1600" pageHeight="1200" math="0" shadow="0">
      <root>
        <mxCell id="0" />
        <mxCell id="1" parent="0" />
        <mxCell id="h2PM3oMP3MXxl9iQ3OsZ-6" value="AWS Cloud" style="points=[[0,0],[0.25,0],[0.5,0],[0.75,0],[1,0],[1,0.25],[1,0.5],[1,0.75],[1,1],[0.75,1],[0.5,1],[0.25,1],[0,1],[0,0.75],[0,0.5],[0,0.25]];outlineConnect=0;gradientColor=none;html=1;whiteSpace=wrap;fontSize=12;fontStyle=0;container=0;pointerEvents=0;collapsible=0;recursiveResize=0;shape=mxgraph.aws4.group;grIcon=mxgraph.aws4.group_aws_cloud_alt;strokeColor=#232F3E;fillColor=none;verticalAlign=top;align=left;spacingLeft=30;fontColor=#232F3E;dashed=0;" parent="1" vertex="1">
          <mxGeometry x="46" y="256" width="1364" height="932" as="geometry" />
        </mxCell>
        <mxCell id="h2PM3oMP3MXxl9iQ3OsZ-4" value="VPC (10.0.0.0/16)" style="points=[[0,0],[0.25,0],[0.5,0],[0.75,0],[1,0],[1,0.25],[1,0.5],[1,0.75],[1,1],[0.75,1],[0.5,1],[0.25,1],[0,1],[0,0.75],[0,0.5],[0,0.25]];outlineConnect=0;gradientColor=none;html=1;whiteSpace=wrap;fontSize=10;fontStyle=0;container=0;pointerEvents=0;collapsible=0;recursiveResize=0;shape=mxgraph.aws4.group;grIcon=mxgraph.aws4.group_vpc2;strokeColor=#8C4FFF;fillColor=none;verticalAlign=top;align=left;spacingLeft=30;fontColor=#000000;dashed=0;" parent="1" vertex="1">
          <mxGeometry x="320" y="287" width="800" height="607" as="geometry" />
        </mxCell>
        <mxCell id="h2PM3oMP3MXxl9iQ3OsZ-7" value="us-east-1b" style="fillColor=none;strokeColor=#147EBA;dashed=1;verticalAlign=top;fontStyle=0;fontColor=#147EBA;whiteSpace=wrap;html=1;movable=1;resizable=1;rotatable=1;deletable=1;editable=1;locked=0;connectable=1;" parent="1" vertex="1">
          <mxGeometry x="630" y="337" width="220" height="531" as="geometry" />
        </mxCell>
        <mxCell id="h2PM3oMP3MXxl9iQ3OsZ-5" value="us-east-1a" style="fillColor=none;strokeColor=#147EBA;dashed=1;verticalAlign=top;fontStyle=0;fontColor=#147EBA;whiteSpace=wrap;html=1;" parent="1" vertex="1">
          <mxGeometry x="400" y="337" width="220" height="531" as="geometry" />
        </mxCell>
        <mxCell id="h2PM3oMP3MXxl9iQ3OsZ-8" value="us-east-1c" style="fillColor=none;strokeColor=#147EBA;dashed=1;verticalAlign=top;fontStyle=0;fontColor=#147EBA;whiteSpace=wrap;html=1;" parent="1" vertex="1">
          <mxGeometry x="860" y="337" width="220" height="531" as="geometry" />
        </mxCell>
        <mxCell id="h2PM3oMP3MXxl9iQ3OsZ-3" value="private-app-1a &lt;font style=&quot;font-size: 8px;&quot;&gt;(10.0.10.0/24)&lt;/font&gt;" style="points=[[0,0],[0.25,0],[0.5,0],[0.75,0],[1,0],[1,0.25],[1,0.5],[1,0.75],[1,1],[0.75,1],[0.5,1],[0.25,1],[0,1],[0,0.75],[0,0.5],[0,0.25]];outlineConnect=0;gradientColor=none;html=1;whiteSpace=wrap;fontSize=12;fontStyle=0;container=1;pointerEvents=0;collapsible=0;recursiveResize=0;shape=mxgraph.aws4.group;grIcon=mxgraph.aws4.group_security_group;grStroke=0;strokeColor=#00A4A6;fillColor=#E6F6F7;verticalAlign=top;align=left;spacingLeft=30;fontColor=#147EBA;dashed=0;" parent="1" vertex="1">
          <mxGeometry x="420" y="517" width="180" height="200" as="geometry" />
        </mxCell>
        <mxCell id="h2PM3oMP3MXxl9iQ3OsZ-11" value="public-1a &lt;font style=&quot;font-size: 8px;&quot;&gt;(10.0.0.0/24)&lt;/font&gt;" style="points=[[0,0],[0.25,0],[0.5,0],[0.75,0],[1,0],[1,0.25],[1,0.5],[1,0.75],[1,1],[0.75,1],[0.5,1],[0.25,1],[0,1],[0,0.75],[0,0.5],[0,0.25]];outlineConnect=0;gradientColor=none;html=1;whiteSpace=wrap;fontSize=12;fontStyle=0;container=1;pointerEvents=0;collapsible=0;recursiveResize=0;shape=mxgraph.aws4.group;grIcon=mxgraph.aws4.group_security_group;grStroke=0;strokeColor=#7AA116;fillColor=#F2F6E8;verticalAlign=top;align=left;spacingLeft=30;fontColor=#248814;dashed=0;" parent="1" vertex="1">
          <mxGeometry x="420" y="377" width="180" height="130" as="geometry" />
        </mxCell>
        <mxCell id="h2PM3oMP3MXxl9iQ3OsZ-21" value="" style="sketch=0;points=[[0,0,0],[0.25,0,0],[0.5,0,0],[0.75,0,0],[1,0,0],[0,1,0],[0.25,1,0],[0.5,1,0],[0.75,1,0],[1,1,0],[0,0.25,0],[0,0.5,0],[0,0.75,0],[1,0.25,0],[1,0.5,0],[1,0.75,0]];outlineConnect=0;fontColor=#232F3E;fillColor=#8C4FFF;strokeColor=#ffffff;dashed=0;verticalLabelPosition=bottom;verticalAlign=top;align=center;html=1;fontSize=12;fontStyle=0;aspect=fixed;shape=mxgraph.aws4.resourceIcon;resIcon=mxgraph.aws4.elastic_load_balancing;" parent="h2PM3oMP3MXxl9iQ3OsZ-11" vertex="1">
          <mxGeometry x="66" y="58" width="48" height="48" as="geometry" />
        </mxCell>
        <mxCell id="h2PM3oMP3MXxl9iQ3OsZ-12" value="private-app-1b&amp;nbsp;&lt;font style=&quot;font-size: 8px;&quot;&gt;(10.0.11.0/24)&lt;/font&gt;" style="points=[[0,0],[0.25,0],[0.5,0],[0.75,0],[1,0],[1,0.25],[1,0.5],[1,0.75],[1,1],[0.75,1],[0.5,1],[0.25,1],[0,1],[0,0.75],[0,0.5],[0,0.25]];outlineConnect=0;gradientColor=none;html=1;whiteSpace=wrap;fontSize=12;fontStyle=0;container=1;pointerEvents=0;collapsible=0;recursiveResize=0;shape=mxgraph.aws4.group;grIcon=mxgraph.aws4.group_security_group;grStroke=0;strokeColor=#00A4A6;fillColor=#E6F6F7;verticalAlign=top;align=left;spacingLeft=30;fontColor=#147EBA;dashed=0;" parent="1" vertex="1">
          <mxGeometry x="650" y="517" width="180" height="200" as="geometry" />
        </mxCell>
        <mxCell id="h2PM3oMP3MXxl9iQ3OsZ-13" value="public-1b &lt;font style=&quot;font-size: 8px;&quot;&gt;(10.0.1.0/24)&lt;/font&gt;" style="points=[[0,0],[0.25,0],[0.5,0],[0.75,0],[1,0],[1,0.25],[1,0.5],[1,0.75],[1,1],[0.75,1],[0.5,1],[0.25,1],[0,1],[0,0.75],[0,0.5],[0,0.25]];outlineConnect=0;gradientColor=none;html=1;whiteSpace=wrap;fontSize=12;fontStyle=0;container=1;pointerEvents=0;collapsible=0;recursiveResize=0;shape=mxgraph.aws4.group;grIcon=mxgraph.aws4.group_security_group;grStroke=0;strokeColor=#7AA116;fillColor=#F2F6E8;verticalAlign=top;align=left;spacingLeft=30;fontColor=#248814;dashed=0;" parent="1" vertex="1">
          <mxGeometry x="650" y="377" width="180" height="130" as="geometry" />
        </mxCell>
        <mxCell id="h2PM3oMP3MXxl9iQ3OsZ-22" value="" style="sketch=0;points=[[0,0,0],[0.25,0,0],[0.5,0,0],[0.75,0,0],[1,0,0],[0,1,0],[0.25,1,0],[0.5,1,0],[0.75,1,0],[1,1,0],[0,0.25,0],[0,0.5,0],[0,0.75,0],[1,0.25,0],[1,0.5,0],[1,0.75,0]];outlineConnect=0;fontColor=#232F3E;fillColor=#8C4FFF;strokeColor=#ffffff;dashed=0;verticalLabelPosition=bottom;verticalAlign=top;align=center;html=1;fontSize=12;fontStyle=0;aspect=fixed;shape=mxgraph.aws4.resourceIcon;resIcon=mxgraph.aws4.elastic_load_balancing;" parent="h2PM3oMP3MXxl9iQ3OsZ-13" vertex="1">
          <mxGeometry x="67" y="60" width="48" height="48" as="geometry" />
        </mxCell>
        <mxCell id="h2PM3oMP3MXxl9iQ3OsZ-14" value="private-app-1c&amp;nbsp;&lt;font style=&quot;font-size: 8px;&quot;&gt;(10.0.12.0/24)&lt;/font&gt;" style="points=[[0,0],[0.25,0],[0.5,0],[0.75,0],[1,0],[1,0.25],[1,0.5],[1,0.75],[1,1],[0.75,1],[0.5,1],[0.25,1],[0,1],[0,0.75],[0,0.5],[0,0.25]];outlineConnect=0;gradientColor=none;html=1;whiteSpace=wrap;fontSize=12;fontStyle=0;container=1;pointerEvents=0;collapsible=0;recursiveResize=0;shape=mxgraph.aws4.group;grIcon=mxgraph.aws4.group_security_group;grStroke=0;strokeColor=#00A4A6;fillColor=#E6F6F7;verticalAlign=top;align=left;spacingLeft=30;fontColor=#147EBA;dashed=0;" parent="1" vertex="1">
          <mxGeometry x="880" y="517" width="180" height="200" as="geometry" />
        </mxCell>
        <mxCell id="h2PM3oMP3MXxl9iQ3OsZ-15" value="public-1c&amp;nbsp;&lt;font style=&quot;font-size: 8px;&quot;&gt;(10.0.2.0/24)&lt;/font&gt;" style="points=[[0,0],[0.25,0],[0.5,0],[0.75,0],[1,0],[1,0.25],[1,0.5],[1,0.75],[1,1],[0.75,1],[0.5,1],[0.25,1],[0,1],[0,0.75],[0,0.5],[0,0.25]];outlineConnect=0;gradientColor=none;html=1;whiteSpace=wrap;fontSize=12;fontStyle=0;container=1;pointerEvents=0;collapsible=0;recursiveResize=0;shape=mxgraph.aws4.group;grIcon=mxgraph.aws4.group_security_group;grStroke=0;strokeColor=#7AA116;fillColor=#F2F6E8;verticalAlign=top;align=left;spacingLeft=30;fontColor=#248814;dashed=0;" parent="1" vertex="1">
          <mxGeometry x="880" y="377" width="180" height="130" as="geometry" />
        </mxCell>
        <mxCell id="h2PM3oMP3MXxl9iQ3OsZ-23" value="" style="sketch=0;points=[[0,0,0],[0.25,0,0],[0.5,0,0],[0.75,0,0],[1,0,0],[0,1,0],[0.25,1,0],[0.5,1,0],[0.75,1,0],[1,1,0],[0,0.25,0],[0,0.5,0],[0,0.75,0],[1,0.25,0],[1,0.5,0],[1,0.75,0]];outlineConnect=0;fontColor=#232F3E;fillColor=#8C4FFF;strokeColor=#ffffff;dashed=0;verticalLabelPosition=bottom;verticalAlign=top;align=center;html=1;fontSize=12;fontStyle=0;aspect=fixed;shape=mxgraph.aws4.resourceIcon;resIcon=mxgraph.aws4.elastic_load_balancing;" parent="h2PM3oMP3MXxl9iQ3OsZ-15" vertex="1">
          <mxGeometry x="66.5" y="60" width="48" height="48" as="geometry" />
        </mxCell>
        <mxCell id="h2PM3oMP3MXxl9iQ3OsZ-17" value="Auto Scaling group" style="points=[[0,0],[0.25,0],[0.5,0],[0.75,0],[1,0],[1,0.25],[1,0.5],[1,0.75],[1,1],[0.75,1],[0.5,1],[0.25,1],[0,1],[0,0.75],[0,0.5],[0,0.25]];outlineConnect=0;gradientColor=none;html=1;whiteSpace=wrap;fontSize=12;fontStyle=0;container=1;pointerEvents=0;collapsible=0;recursiveResize=0;shape=mxgraph.aws4.groupCenter;grIcon=mxgraph.aws4.group_auto_scaling_group;grStroke=1;strokeColor=#D86613;fillColor=none;verticalAlign=top;align=center;fontColor=#D86613;dashed=1;spacingTop=25;" parent="1" vertex="1">
          <mxGeometry x="430" y="569" width="620" height="130" as="geometry" />
        </mxCell>
        <mxCell id="h2PM3oMP3MXxl9iQ3OsZ-44" style="edgeStyle=orthogonalEdgeStyle;rounded=0;orthogonalLoop=1;jettySize=auto;html=1;exitX=1;exitY=0.5;exitDx=0;exitDy=0;entryX=1;entryY=0.125;entryDx=0;entryDy=0;fillColor=#f5f5f5;strokeColor=#666666;strokeWidth=2;entryPerimeter=0;" parent="1" source="h2PM3oMP3MXxl9iQ3OsZ-24" target="h2PM3oMP3MXxl9iQ3OsZ-29" edge="1">
          <mxGeometry relative="1" as="geometry">
            <Array as="points">
              <mxPoint x="1130" y="455" />
              <mxPoint x="1130" y="578" />
            </Array>
          </mxGeometry>
        </mxCell>
        <mxCell id="h2PM3oMP3MXxl9iQ3OsZ-24" value="Applicaion Load Balancer" style="rounded=0;whiteSpace=wrap;html=1;fillColor=none;dashed=1;strokeColor=#7F00FF;verticalAlign=top;spacing=0;spacingTop=-3;fontColor=#8000ff;" parent="1" vertex="1">
          <mxGeometry x="472" y="415" width="538" height="80" as="geometry" />
        </mxCell>
        <mxCell id="h2PM3oMP3MXxl9iQ3OsZ-47" style="edgeStyle=orthogonalEdgeStyle;rounded=0;orthogonalLoop=1;jettySize=auto;html=1;fillColor=#f5f5f5;strokeColor=#666666;dashed=1;dashPattern=1 1;" parent="1" source="h2PM3oMP3MXxl9iQ3OsZ-25" target="h2PM3oMP3MXxl9iQ3OsZ-39" edge="1">
          <mxGeometry relative="1" as="geometry" />
        </mxCell>
        <mxCell id="h2PM3oMP3MXxl9iQ3OsZ-25" value="ec2" style="sketch=0;points=[[0,0,0],[0.25,0,0],[0.5,0,0],[0.75,0,0],[1,0,0],[0,1,0],[0.25,1,0],[0.5,1,0],[0.75,1,0],[1,1,0],[0,0.25,0],[0,0.5,0],[0,0.75,0],[1,0.25,0],[1,0.5,0],[1,0.75,0]];outlineConnect=0;fontColor=#FF8000;fillColor=#ED7100;strokeColor=#ffffff;dashed=0;verticalLabelPosition=bottom;verticalAlign=top;align=center;html=1;fontSize=12;fontStyle=0;aspect=fixed;shape=mxgraph.aws4.resourceIcon;resIcon=mxgraph.aws4.ec2;spacing=0;spacingTop=-3;" parent="1" vertex="1">
          <mxGeometry x="485.5" y="628" width="49" height="49" as="geometry" />
        </mxCell>
        <mxCell id="h2PM3oMP3MXxl9iQ3OsZ-48" style="edgeStyle=orthogonalEdgeStyle;rounded=0;orthogonalLoop=1;jettySize=auto;html=1;fillColor=#f5f5f5;strokeColor=#666666;dashed=1;dashPattern=1 1;" parent="1" source="h2PM3oMP3MXxl9iQ3OsZ-26" target="h2PM3oMP3MXxl9iQ3OsZ-40" edge="1">
          <mxGeometry relative="1" as="geometry" />
        </mxCell>
        <mxCell id="h2PM3oMP3MXxl9iQ3OsZ-26" value="ec2" style="sketch=0;points=[[0,0,0],[0.25,0,0],[0.5,0,0],[0.75,0,0],[1,0,0],[0,1,0],[0.25,1,0],[0.5,1,0],[0.75,1,0],[1,1,0],[0,0.25,0],[0,0.5,0],[0,0.75,0],[1,0.25,0],[1,0.5,0],[1,0.75,0]];outlineConnect=0;fontColor=#FF8000;fillColor=#ED7100;strokeColor=#ffffff;dashed=0;verticalLabelPosition=bottom;verticalAlign=top;align=center;html=1;fontSize=12;fontStyle=0;aspect=fixed;shape=mxgraph.aws4.resourceIcon;resIcon=mxgraph.aws4.ec2;spacing=0;spacingTop=-3;" parent="1" vertex="1">
          <mxGeometry x="716.5" y="628" width="49" height="49" as="geometry" />
        </mxCell>
        <mxCell id="h2PM3oMP3MXxl9iQ3OsZ-49" style="edgeStyle=orthogonalEdgeStyle;rounded=0;orthogonalLoop=1;jettySize=auto;html=1;dashed=1;dashPattern=1 1;fillColor=#f5f5f5;strokeColor=#666666;" parent="1" source="h2PM3oMP3MXxl9iQ3OsZ-27" target="h2PM3oMP3MXxl9iQ3OsZ-41" edge="1">
          <mxGeometry relative="1" as="geometry" />
        </mxCell>
        <mxCell id="h2PM3oMP3MXxl9iQ3OsZ-27" value="ec2" style="sketch=0;points=[[0,0,0],[0.25,0,0],[0.5,0,0],[0.75,0,0],[1,0,0],[0,1,0],[0.25,1,0],[0.5,1,0],[0.75,1,0],[1,1,0],[0,0.25,0],[0,0.5,0],[0,0.75,0],[1,0.25,0],[1,0.5,0],[1,0.75,0]];outlineConnect=0;fontColor=#FF8000;fillColor=#ED7100;strokeColor=#ffffff;dashed=0;verticalLabelPosition=bottom;verticalAlign=top;align=center;html=1;fontSize=12;fontStyle=0;aspect=fixed;shape=mxgraph.aws4.resourceIcon;resIcon=mxgraph.aws4.ec2;spacing=0;spacingTop=-3;" parent="1" vertex="1">
          <mxGeometry x="945.5" y="628" width="49" height="49" as="geometry" />
        </mxCell>
        <mxCell id="h2PM3oMP3MXxl9iQ3OsZ-32" value="private-db-1a&amp;nbsp;&lt;font style=&quot;font-size: 8px;&quot;&gt;(10.0.20.0/24)&lt;/font&gt;" style="points=[[0,0],[0.25,0],[0.5,0],[0.75,0],[1,0],[1,0.25],[1,0.5],[1,0.75],[1,1],[0.75,1],[0.5,1],[0.25,1],[0,1],[0,0.75],[0,0.5],[0,0.25]];outlineConnect=0;gradientColor=none;html=1;whiteSpace=wrap;fontSize=12;fontStyle=0;container=1;pointerEvents=0;collapsible=0;recursiveResize=0;shape=mxgraph.aws4.group;grIcon=mxgraph.aws4.group_security_group;grStroke=0;strokeColor=#00A4A6;fillColor=#E6F6F7;verticalAlign=top;align=left;spacingLeft=30;fontColor=#147EBA;dashed=0;" parent="1" vertex="1">
          <mxGeometry x="420" y="727" width="180" height="130" as="geometry" />
        </mxCell>
        <mxCell id="h2PM3oMP3MXxl9iQ3OsZ-33" value="private-db-1b&amp;nbsp;&lt;font style=&quot;font-size: 8px;&quot;&gt;(10.0.21.0/24)&lt;/font&gt;" style="points=[[0,0],[0.25,0],[0.5,0],[0.75,0],[1,0],[1,0.25],[1,0.5],[1,0.75],[1,1],[0.75,1],[0.5,1],[0.25,1],[0,1],[0,0.75],[0,0.5],[0,0.25]];outlineConnect=0;gradientColor=none;html=1;whiteSpace=wrap;fontSize=12;fontStyle=0;container=1;pointerEvents=0;collapsible=0;recursiveResize=0;shape=mxgraph.aws4.group;grIcon=mxgraph.aws4.group_security_group;grStroke=0;strokeColor=#00A4A6;fillColor=#E6F6F7;verticalAlign=top;align=left;spacingLeft=30;fontColor=#147EBA;dashed=0;" parent="1" vertex="1">
          <mxGeometry x="651" y="727" width="180" height="130" as="geometry" />
        </mxCell>
        <mxCell id="h2PM3oMP3MXxl9iQ3OsZ-34" value="private-db-1c&amp;nbsp;&lt;font style=&quot;font-size: 8px;&quot;&gt;(10.0.22.0/24)&lt;/font&gt;" style="points=[[0,0],[0.25,0],[0.5,0],[0.75,0],[1,0],[1,0.25],[1,0.5],[1,0.75],[1,1],[0.75,1],[0.5,1],[0.25,1],[0,1],[0,0.75],[0,0.5],[0,0.25]];outlineConnect=0;gradientColor=none;html=1;whiteSpace=wrap;fontSize=12;fontStyle=0;container=1;pointerEvents=0;collapsible=0;recursiveResize=0;shape=mxgraph.aws4.group;grIcon=mxgraph.aws4.group_security_group;grStroke=0;strokeColor=#00A4A6;fillColor=#E6F6F7;verticalAlign=top;align=left;spacingLeft=30;fontColor=#147EBA;dashed=0;" parent="1" vertex="1">
          <mxGeometry x="880" y="727" width="180" height="130" as="geometry" />
        </mxCell>
        <mxCell id="h2PM3oMP3MXxl9iQ3OsZ-35" value="RDS" style="rounded=0;whiteSpace=wrap;html=1;fillColor=none;dashed=1;strokeColor=#005DBA;verticalAlign=top;spacing=0;spacingTop=1;fontColor=#005DBA;align=left;spacingLeft=31;" parent="1" vertex="1">
          <mxGeometry x="455" y="767" width="576" height="80" as="geometry" />
        </mxCell>
        <mxCell id="h2PM3oMP3MXxl9iQ3OsZ-81" style="edgeStyle=orthogonalEdgeStyle;rounded=0;orthogonalLoop=1;jettySize=auto;html=1;endArrow=none;endFill=0;dashed=1;dashPattern=1 1;" parent="1" source="h2PM3oMP3MXxl9iQ3OsZ-39" edge="1">
          <mxGeometry relative="1" as="geometry">
            <mxPoint x="586" y="323" as="targetPoint" />
          </mxGeometry>
        </mxCell>
        <mxCell id="h2PM3oMP3MXxl9iQ3OsZ-39" value="" style="sketch=0;outlineConnect=0;fontColor=#232F3E;gradientColor=none;fillColor=#8C4FFF;strokeColor=none;dashed=0;verticalLabelPosition=bottom;verticalAlign=top;align=center;html=1;fontSize=12;fontStyle=0;aspect=fixed;pointerEvents=1;shape=mxgraph.aws4.nat_gateway;" parent="1" vertex="1">
          <mxGeometry x="572" y="377" width="28" height="28" as="geometry" />
        </mxCell>
        <mxCell id="h2PM3oMP3MXxl9iQ3OsZ-82" style="edgeStyle=orthogonalEdgeStyle;rounded=0;orthogonalLoop=1;jettySize=auto;html=1;endArrow=none;endFill=0;dashed=1;dashPattern=1 1;" parent="1" source="h2PM3oMP3MXxl9iQ3OsZ-40" edge="1">
          <mxGeometry relative="1" as="geometry">
            <mxPoint x="817" y="323" as="targetPoint" />
          </mxGeometry>
        </mxCell>
        <mxCell id="h2PM3oMP3MXxl9iQ3OsZ-40" value="" style="sketch=0;outlineConnect=0;fontColor=#232F3E;gradientColor=none;fillColor=#8C4FFF;strokeColor=none;dashed=0;verticalLabelPosition=bottom;verticalAlign=top;align=center;html=1;fontSize=12;fontStyle=0;aspect=fixed;pointerEvents=1;shape=mxgraph.aws4.nat_gateway;" parent="1" vertex="1">
          <mxGeometry x="803" y="377" width="28" height="28" as="geometry" />
        </mxCell>
        <mxCell id="h2PM3oMP3MXxl9iQ3OsZ-80" style="edgeStyle=orthogonalEdgeStyle;rounded=0;orthogonalLoop=1;jettySize=auto;html=1;entryX=1;entryY=0.25;entryDx=0;entryDy=0;dashed=1;dashPattern=1 1;" parent="1" source="h2PM3oMP3MXxl9iQ3OsZ-41" target="h2PM3oMP3MXxl9iQ3OsZ-77" edge="1">
          <mxGeometry relative="1" as="geometry">
            <Array as="points">
              <mxPoint x="1046" y="323" />
              <mxPoint x="360" y="323" />
              <mxPoint x="360" y="481" />
            </Array>
          </mxGeometry>
        </mxCell>
        <mxCell id="h2PM3oMP3MXxl9iQ3OsZ-41" value="" style="sketch=0;outlineConnect=0;fontColor=#232F3E;gradientColor=none;fillColor=#8C4FFF;strokeColor=none;dashed=0;verticalLabelPosition=bottom;verticalAlign=top;align=center;html=1;fontSize=12;fontStyle=0;aspect=fixed;pointerEvents=1;shape=mxgraph.aws4.nat_gateway;" parent="1" vertex="1">
          <mxGeometry x="1032" y="377" width="28" height="28" as="geometry" />
        </mxCell>
        <mxCell id="h2PM3oMP3MXxl9iQ3OsZ-45" style="edgeStyle=orthogonalEdgeStyle;rounded=0;orthogonalLoop=1;jettySize=auto;html=1;exitX=1.001;exitY=0.844;exitDx=0;exitDy=0;entryX=1;entryY=0.5;entryDx=0;entryDy=0;fillColor=#f5f5f5;strokeColor=#666666;strokeWidth=2;exitPerimeter=0;" parent="1" source="h2PM3oMP3MXxl9iQ3OsZ-29" target="h2PM3oMP3MXxl9iQ3OsZ-35" edge="1">
          <mxGeometry relative="1" as="geometry">
            <Array as="points">
              <mxPoint x="1130" y="686" />
              <mxPoint x="1130" y="807" />
            </Array>
          </mxGeometry>
        </mxCell>
        <mxCell id="h2PM3oMP3MXxl9iQ3OsZ-54" style="edgeStyle=orthogonalEdgeStyle;rounded=0;orthogonalLoop=1;jettySize=auto;html=1;entryX=0;entryY=0.5;entryDx=0;entryDy=0;fillColor=#f5f5f5;strokeColor=#666666;strokeWidth=2;exitX=1;exitY=0.5;exitDx=0;exitDy=0;" parent="1" source="h2PM3oMP3MXxl9iQ3OsZ-77" target="h2PM3oMP3MXxl9iQ3OsZ-24" edge="1">
          <mxGeometry relative="1" as="geometry">
            <Array as="points">
              <mxPoint x="385" y="499" />
              <mxPoint x="385" y="455" />
            </Array>
          </mxGeometry>
        </mxCell>
        <mxCell id="h2PM3oMP3MXxl9iQ3OsZ-61" value="S3" style="rounded=0;whiteSpace=wrap;html=1;fillColor=#d5e8d4;strokeColor=#82b366;verticalAlign=top;align=left;spacingLeft=36;" parent="1" vertex="1">
          <mxGeometry x="1196" y="517" width="170" height="140" as="geometry" />
        </mxCell>
        <mxCell id="h2PM3oMP3MXxl9iQ3OsZ-60" value="" style="sketch=0;points=[[0,0,0],[0.25,0,0],[0.5,0,0],[0.75,0,0],[1,0,0],[0,1,0],[0.25,1,0],[0.5,1,0],[0.75,1,0],[1,1,0],[0,0.25,0],[0,0.5,0],[0,0.75,0],[1,0.25,0],[1,0.5,0],[1,0.75,0]];outlineConnect=0;fontColor=#232F3E;fillColor=#7AA116;strokeColor=#ffffff;dashed=0;verticalLabelPosition=bottom;verticalAlign=top;align=center;html=1;fontSize=12;fontStyle=0;aspect=fixed;shape=mxgraph.aws4.resourceIcon;resIcon=mxgraph.aws4.s3;" parent="1" vertex="1">
          <mxGeometry x="1196" y="517" width="31.75" height="31.75" as="geometry" />
        </mxCell>
        <mxCell id="h2PM3oMP3MXxl9iQ3OsZ-64" value="&lt;div style=&quot;font-size: 8px;&quot;&gt;App&lt;/div&gt;&lt;div style=&quot;font-size: 8px;&quot;&gt;Bucket&lt;br style=&quot;font-size: 8px;&quot;&gt;&lt;/div&gt;" style="sketch=0;outlineConnect=0;fontColor=#232F3E;gradientColor=none;fillColor=#7AA116;strokeColor=none;dashed=0;verticalLabelPosition=bottom;verticalAlign=top;align=center;html=1;fontSize=8;fontStyle=0;aspect=fixed;pointerEvents=1;shape=mxgraph.aws4.bucket;" parent="1" vertex="1">
          <mxGeometry x="1225.75" y="567" width="38.46" height="40" as="geometry" />
        </mxCell>
        <mxCell id="h2PM3oMP3MXxl9iQ3OsZ-66" value="&lt;div&gt;Terraform&lt;/div&gt;&lt;div&gt;Bucket&lt;br&gt;&lt;/div&gt;" style="sketch=0;outlineConnect=0;fontColor=#232F3E;gradientColor=none;fillColor=#7AA116;strokeColor=none;dashed=0;verticalLabelPosition=bottom;verticalAlign=top;align=center;html=1;fontSize=8;fontStyle=0;aspect=fixed;pointerEvents=1;shape=mxgraph.aws4.bucket;" parent="1" vertex="1">
          <mxGeometry x="1303" y="567" width="38.46" height="40" as="geometry" />
        </mxCell>
        <mxCell id="h2PM3oMP3MXxl9iQ3OsZ-63" style="edgeStyle=orthogonalEdgeStyle;rounded=0;orthogonalLoop=1;jettySize=auto;html=1;exitX=0.999;exitY=0.39;exitDx=0;exitDy=0;exitPerimeter=0;strokeWidth=2;fillColor=#f5f5f5;strokeColor=#666666;" parent="1" source="h2PM3oMP3MXxl9iQ3OsZ-29" target="h2PM3oMP3MXxl9iQ3OsZ-64" edge="1">
          <mxGeometry relative="1" as="geometry">
            <Array as="points">
              <mxPoint x="1160" y="617" />
              <mxPoint x="1160" y="587" />
            </Array>
          </mxGeometry>
        </mxCell>
        <mxCell id="h2PM3oMP3MXxl9iQ3OsZ-71" value="" style="group" parent="1" vertex="1" connectable="0">
          <mxGeometry x="360" y="559.5" width="730" height="149.5" as="geometry" />
        </mxCell>
        <mxCell id="h2PM3oMP3MXxl9iQ3OsZ-29" value="EKS" style="rounded=0;whiteSpace=wrap;html=1;strokeColor=#FF8000;dashed=1;fillColor=none;align=left;verticalAlign=top;spacingTop=21;spacingLeft=5;fontSize=9;strokeWidth=2;" parent="h2PM3oMP3MXxl9iQ3OsZ-71" vertex="1">
          <mxGeometry width="730" height="149.5" as="geometry" />
        </mxCell>
        <mxCell id="h2PM3oMP3MXxl9iQ3OsZ-70" value="" style="sketch=0;points=[[0,0,0],[0.25,0,0],[0.5,0,0],[0.75,0,0],[1,0,0],[0,1,0],[0.25,1,0],[0.5,1,0],[0.75,1,0],[1,1,0],[0,0.25,0],[0,0.5,0],[0,0.75,0],[1,0.25,0],[1,0.5,0],[1,0.75,0]];outlineConnect=0;fontColor=#232F3E;fillColor=#ED7100;strokeColor=#ffffff;dashed=0;verticalLabelPosition=bottom;verticalAlign=top;align=center;html=1;fontSize=12;fontStyle=0;aspect=fixed;shape=mxgraph.aws4.resourceIcon;resIcon=mxgraph.aws4.eks;" parent="h2PM3oMP3MXxl9iQ3OsZ-71" vertex="1">
          <mxGeometry x="-1" y="-2.5" width="30" height="30" as="geometry" />
        </mxCell>
        <mxCell id="h2PM3oMP3MXxl9iQ3OsZ-72" value="ECR" style="sketch=0;points=[[0,0,0],[0.25,0,0],[0.5,0,0],[0.75,0,0],[1,0,0],[0,1,0],[0.25,1,0],[0.5,1,0],[0.75,1,0],[1,1,0],[0,0.25,0],[0,0.5,0],[0,0.75,0],[1,0.25,0],[1,0.5,0],[1,0.75,0]];outlineConnect=0;fontColor=#232F3E;fillColor=#ED7100;strokeColor=#ffffff;dashed=0;verticalLabelPosition=bottom;verticalAlign=top;align=center;html=1;fontSize=10;fontStyle=0;aspect=fixed;shape=mxgraph.aws4.resourceIcon;resIcon=mxgraph.aws4.ecr;spacingTop=-5;" parent="1" vertex="1">
          <mxGeometry x="255" y="796" width="46" height="46" as="geometry" />
        </mxCell>
        <mxCell id="h2PM3oMP3MXxl9iQ3OsZ-74" style="edgeStyle=orthogonalEdgeStyle;rounded=0;orthogonalLoop=1;jettySize=auto;html=1;exitX=-0.002;exitY=0.885;exitDx=0;exitDy=0;entryX=0.5;entryY=0;entryDx=0;entryDy=0;entryPerimeter=0;fillColor=#ffe6cc;strokeColor=#d79b00;dashed=1;exitPerimeter=0;" parent="1" source="h2PM3oMP3MXxl9iQ3OsZ-29" target="h2PM3oMP3MXxl9iQ3OsZ-72" edge="1">
          <mxGeometry relative="1" as="geometry" />
        </mxCell>
        <mxCell id="h2PM3oMP3MXxl9iQ3OsZ-76" value="" style="edgeStyle=orthogonalEdgeStyle;rounded=0;orthogonalLoop=1;jettySize=auto;html=1;entryX=0;entryY=0.5;entryDx=0;entryDy=0;entryPerimeter=0;strokeWidth=2;fillColor=#f5f5f5;strokeColor=#666666;" parent="1" source="h2PM3oMP3MXxl9iQ3OsZ-29" target="h2PM3oMP3MXxl9iQ3OsZ-75" edge="1">
          <mxGeometry relative="1" as="geometry">
            <mxPoint x="1090" y="633" as="sourcePoint" />
            <mxPoint x="1254" y="717" as="targetPoint" />
            <Array as="points" />
          </mxGeometry>
        </mxCell>
        <mxCell id="h2PM3oMP3MXxl9iQ3OsZ-75" value="" style="rounded=0;whiteSpace=wrap;html=1;fillColor=default;strokeColor=#9673a6;" parent="1" vertex="1">
          <mxGeometry x="1103" y="604" width="37" height="60" as="geometry" />
        </mxCell>
        <mxCell id="h2PM3oMP3MXxl9iQ3OsZ-69" value="&lt;div style=&quot;font-size: 8px;&quot;&gt;VPC&lt;/div&gt;&lt;div style=&quot;font-size: 8px;&quot;&gt;Endpoint&lt;br style=&quot;font-size: 8px;&quot;&gt;&lt;/div&gt;" style="sketch=0;outlineConnect=0;fontColor=#232F3E;gradientColor=none;fillColor=#8C4FFF;strokeColor=none;dashed=0;verticalLabelPosition=bottom;verticalAlign=top;align=center;html=1;fontSize=8;fontStyle=0;aspect=fixed;pointerEvents=1;shape=mxgraph.aws4.endpoint;" parent="1" vertex="1">
          <mxGeometry x="1107" y="609" width="28" height="28" as="geometry" />
        </mxCell>
        <mxCell id="h2PM3oMP3MXxl9iQ3OsZ-77" value="" style="rounded=0;whiteSpace=wrap;html=1;fillColor=#FFFFFF;strokeColor=#9673a6;" parent="1" vertex="1">
          <mxGeometry x="296" y="463" width="44" height="71" as="geometry" />
        </mxCell>
        <mxCell id="h2PM3oMP3MXxl9iQ3OsZ-42" value="&lt;div&gt;Internet&lt;/div&gt;&lt;div&gt;Gateway&lt;/div&gt;" style="sketch=0;outlineConnect=0;fontColor=#232F3E;gradientColor=none;fillColor=#8C4FFF;strokeColor=none;dashed=0;verticalLabelPosition=bottom;verticalAlign=top;align=center;html=1;fontSize=8;fontStyle=0;aspect=fixed;pointerEvents=1;shape=mxgraph.aws4.internet_gateway;" parent="1" vertex="1">
          <mxGeometry x="298" y="467" width="40" height="40" as="geometry" />
        </mxCell>
        <mxCell id="h2PM3oMP3MXxl9iQ3OsZ-89" value="" style="group" parent="1" vertex="1" connectable="0">
          <mxGeometry x="597" y="27" width="254" height="192" as="geometry" />
        </mxCell>
        <mxCell id="h2PM3oMP3MXxl9iQ3OsZ-83" value="GitHub" style="rounded=0;whiteSpace=wrap;html=1;verticalAlign=top;align=left;spacingLeft=34;spacingTop=2;" parent="h2PM3oMP3MXxl9iQ3OsZ-89" vertex="1">
          <mxGeometry width="254" height="192" as="geometry" />
        </mxCell>
        <mxCell id="h2PM3oMP3MXxl9iQ3OsZ-84" value="" style="dashed=0;outlineConnect=0;html=1;align=center;labelPosition=center;verticalLabelPosition=bottom;verticalAlign=top;shape=mxgraph.weblogos.github" parent="h2PM3oMP3MXxl9iQ3OsZ-89" vertex="1">
          <mxGeometry x="2" y="2" width="30" height="30" as="geometry" />
        </mxCell>
        <mxCell id="h2PM3oMP3MXxl9iQ3OsZ-88" value="" style="group" parent="h2PM3oMP3MXxl9iQ3OsZ-89" vertex="1" connectable="0">
          <mxGeometry x="29" y="148" width="204" height="35" as="geometry" />
        </mxCell>
        <mxCell id="h2PM3oMP3MXxl9iQ3OsZ-86" value="terraform-aws-infra-stack" style="rounded=1;whiteSpace=wrap;html=1;arcSize=50;align=left;spacingLeft=40;" parent="h2PM3oMP3MXxl9iQ3OsZ-88" vertex="1">
          <mxGeometry width="204" height="35" as="geometry" />
        </mxCell>
        <mxCell id="h2PM3oMP3MXxl9iQ3OsZ-87" value="" style="dashed=0;outlineConnect=0;html=1;align=center;labelPosition=center;verticalLabelPosition=bottom;verticalAlign=top;shape=mxgraph.weblogos.github" parent="h2PM3oMP3MXxl9iQ3OsZ-88" vertex="1">
          <mxGeometry x="3" y="2" width="31" height="31" as="geometry" />
        </mxCell>
        <mxCell id="h2PM3oMP3MXxl9iQ3OsZ-90" style="edgeStyle=orthogonalEdgeStyle;rounded=0;orthogonalLoop=1;jettySize=auto;html=1;exitX=1;exitY=0.5;exitDx=0;exitDy=0;dashed=1;" parent="1" source="h2PM3oMP3MXxl9iQ3OsZ-86" target="h2PM3oMP3MXxl9iQ3OsZ-66" edge="1">
          <mxGeometry relative="1" as="geometry" />
        </mxCell>
        <mxCell id="h2PM3oMP3MXxl9iQ3OsZ-91" style="edgeStyle=orthogonalEdgeStyle;rounded=0;orthogonalLoop=1;jettySize=auto;html=1;exitX=0.5;exitY=1;exitDx=0;exitDy=0;entryX=0.5;entryY=0;entryDx=0;entryDy=0;strokeWidth=6;fillColor=#f5f5f5;strokeColor=#666666;" parent="1" source="h2PM3oMP3MXxl9iQ3OsZ-86" target="h2PM3oMP3MXxl9iQ3OsZ-6" edge="1">
          <mxGeometry relative="1" as="geometry" />
        </mxCell>
        <mxCell id="e8v7B2R5iquHU8SgBQqi-1" value="" style="sketch=0;points=[[0,0,0],[0.25,0,0],[0.5,0,0],[0.75,0,0],[1,0,0],[0,1,0],[0.25,1,0],[0.5,1,0],[0.75,1,0],[1,1,0],[0,0.25,0],[0,0.5,0],[0,0.75,0],[1,0.25,0],[1,0.5,0],[1,0.75,0]];outlineConnect=0;fillColor=#2f75bc;strokeColor=#FFFFFF;dashed=0;verticalLabelPosition=bottom;verticalAlign=top;align=center;html=1;fontSize=12;fontStyle=0;aspect=fixed;shape=mxgraph.aws4.resourceIcon;resIcon=mxgraph.aws4.rds;" vertex="1" parent="1">
          <mxGeometry x="454" y="766" width="28" height="28" as="geometry" />
        </mxCell>
        <mxCell id="e8v7B2R5iquHU8SgBQqi-2" value="" style="outlineConnect=0;dashed=0;verticalLabelPosition=bottom;verticalAlign=top;align=center;html=1;shape=mxgraph.aws3.rds_db_instance;fillColor=#2E73B8;gradientColor=none;" vertex="1" parent="1">
          <mxGeometry x="527" y="791" width="36" height="48" as="geometry" />
        </mxCell>
        <mxCell id="e8v7B2R5iquHU8SgBQqi-3" value="" style="outlineConnect=0;dashed=0;verticalLabelPosition=bottom;verticalAlign=top;align=center;html=1;shape=mxgraph.aws3.rds_db_instance_standby_multi_az;fillColor=#2E73B8;gradientColor=none;" vertex="1" parent="1">
          <mxGeometry x="726" y="791" width="36" height="48" as="geometry" />
        </mxCell>
        <mxCell id="e8v7B2R5iquHU8SgBQqi-4" value="" style="outlineConnect=0;dashed=0;verticalLabelPosition=bottom;verticalAlign=top;align=center;html=1;shape=mxgraph.aws3.rds_db_instance_standby_multi_az;fillColor=#2E73B8;gradientColor=none;" vertex="1" parent="1">
          <mxGeometry x="952" y="791" width="36" height="48" as="geometry" />
        </mxCell>
        <mxCell id="e8v7B2R5iquHU8SgBQqi-5" value="CloudWatch" style="sketch=0;points=[[0,0,0],[0.25,0,0],[0.5,0,0],[0.75,0,0],[1,0,0],[0,1,0],[0.25,1,0],[0.5,1,0],[0.75,1,0],[1,1,0],[0,0.25,0],[0,0.5,0],[0,0.75,0],[1,0.25,0],[1,0.5,0],[1,0.75,0]];points=[[0,0,0],[0.25,0,0],[0.5,0,0],[0.75,0,0],[1,0,0],[0,1,0],[0.25,1,0],[0.5,1,0],[0.75,1,0],[1,1,0],[0,0.25,0],[0,0.5,0],[0,0.75,0],[1,0.25,0],[1,0.5,0],[1,0.75,0]];outlineConnect=0;fontColor=#232F3E;fillColor=#E7157B;strokeColor=#ffffff;dashed=0;verticalLabelPosition=bottom;verticalAlign=top;align=center;html=1;fontSize=10;fontStyle=0;aspect=fixed;shape=mxgraph.aws4.resourceIcon;resIcon=mxgraph.aws4.cloudwatch_2;spacingTop=-5;" vertex="1" parent="1">
          <mxGeometry x="200" y="797" width="45" height="45" as="geometry" />
        </mxCell>
        <mxCell id="e8v7B2R5iquHU8SgBQqi-6" style="edgeStyle=orthogonalEdgeStyle;rounded=0;orthogonalLoop=1;jettySize=auto;html=1;exitX=0;exitY=0.75;exitDx=0;exitDy=0;entryX=0.5;entryY=0;entryDx=0;entryDy=0;entryPerimeter=0;fillColor=#f8cecc;strokeColor=#CC00CC;dashed=1;" edge="1" parent="1" source="h2PM3oMP3MXxl9iQ3OsZ-29" target="e8v7B2R5iquHU8SgBQqi-5">
          <mxGeometry relative="1" as="geometry" />
        </mxCell>
        <mxCell id="e8v7B2R5iquHU8SgBQqi-7" value="VPC (10.1.0.0/16)" style="points=[[0,0],[0.25,0],[0.5,0],[0.75,0],[1,0],[1,0.25],[1,0.5],[1,0.75],[1,1],[0.75,1],[0.5,1],[0.25,1],[0,1],[0,0.75],[0,0.5],[0,0.25]];outlineConnect=0;gradientColor=none;html=1;whiteSpace=wrap;fontSize=10;fontStyle=0;container=1;pointerEvents=0;collapsible=0;recursiveResize=0;shape=mxgraph.aws4.group;grIcon=mxgraph.aws4.group_vpc2;strokeColor=#8C4FFF;fillColor=none;verticalAlign=top;align=left;spacingLeft=30;fontColor=#000000;dashed=0;" vertex="1" parent="1">
          <mxGeometry x="320" y="952" width="801" height="211" as="geometry" />
        </mxCell>
        <mxCell id="e8v7B2R5iquHU8SgBQqi-16" style="edgeStyle=orthogonalEdgeStyle;rounded=0;orthogonalLoop=1;jettySize=auto;html=1;exitX=0;exitY=0.5;exitDx=0;exitDy=0;exitPerimeter=0;entryX=1;entryY=0.5;entryDx=0;entryDy=0;strokeWidth=2;strokeColor=#4D4D4D;" edge="1" parent="e8v7B2R5iquHU8SgBQqi-7" source="e8v7B2R5iquHU8SgBQqi-8" target="e8v7B2R5iquHU8SgBQqi-14">
          <mxGeometry relative="1" as="geometry" />
        </mxCell>
        <mxCell id="e8v7B2R5iquHU8SgBQqi-8" value="API GW" style="sketch=0;points=[[0,0,0],[0.25,0,0],[0.5,0,0],[0.75,0,0],[1,0,0],[0,1,0],[0.25,1,0],[0.5,1,0],[0.75,1,0],[1,1,0],[0,0.25,0],[0,0.5,0],[0,0.75,0],[1,0.25,0],[1,0.5,0],[1,0.75,0]];outlineConnect=0;fontColor=#232F3E;fillColor=#E7157B;strokeColor=#ffffff;dashed=0;verticalLabelPosition=bottom;verticalAlign=top;align=center;html=1;fontSize=10;fontStyle=0;aspect=fixed;shape=mxgraph.aws4.resourceIcon;resIcon=mxgraph.aws4.api_gateway;spacingTop=-4;" vertex="1" parent="e8v7B2R5iquHU8SgBQqi-7">
          <mxGeometry x="730" y="80" width="51" height="51" as="geometry" />
        </mxCell>
        <mxCell id="e8v7B2R5iquHU8SgBQqi-15" value="" style="group" vertex="1" connectable="0" parent="e8v7B2R5iquHU8SgBQqi-7">
          <mxGeometry x="565.5" y="18" width="120" height="175" as="geometry" />
        </mxCell>
        <mxCell id="e8v7B2R5iquHU8SgBQqi-14" value="" style="rounded=1;whiteSpace=wrap;html=1;fillColor=#ffe6cc;strokeColor=#d79b00;" vertex="1" parent="e8v7B2R5iquHU8SgBQqi-15">
          <mxGeometry width="120" height="175" as="geometry" />
        </mxCell>
        <mxCell id="e8v7B2R5iquHU8SgBQqi-9" value="" style="sketch=0;outlineConnect=0;fontColor=#232F3E;gradientColor=none;fillColor=#ED7100;strokeColor=none;dashed=0;verticalLabelPosition=bottom;verticalAlign=top;align=center;html=1;fontSize=12;fontStyle=0;aspect=fixed;pointerEvents=1;shape=mxgraph.aws4.lambda_function;" vertex="1" parent="e8v7B2R5iquHU8SgBQqi-15">
          <mxGeometry x="19.5" y="14" width="38" height="38" as="geometry" />
        </mxCell>
        <mxCell id="e8v7B2R5iquHU8SgBQqi-10" value="" style="sketch=0;outlineConnect=0;fontColor=#232F3E;gradientColor=none;fillColor=#ED7100;strokeColor=none;dashed=0;verticalLabelPosition=bottom;verticalAlign=top;align=center;html=1;fontSize=12;fontStyle=0;aspect=fixed;pointerEvents=1;shape=mxgraph.aws4.lambda_function;" vertex="1" parent="e8v7B2R5iquHU8SgBQqi-15">
          <mxGeometry x="60.5" y="52" width="38" height="38" as="geometry" />
        </mxCell>
        <mxCell id="e8v7B2R5iquHU8SgBQqi-11" value="" style="sketch=0;outlineConnect=0;fontColor=#232F3E;gradientColor=none;fillColor=#ED7100;strokeColor=none;dashed=0;verticalLabelPosition=bottom;verticalAlign=top;align=center;html=1;fontSize=12;fontStyle=0;aspect=fixed;pointerEvents=1;shape=mxgraph.aws4.lambda_function;" vertex="1" parent="e8v7B2R5iquHU8SgBQqi-15">
          <mxGeometry x="22.5" y="90" width="38" height="38" as="geometry" />
        </mxCell>
        <mxCell id="e8v7B2R5iquHU8SgBQqi-12" value="" style="sketch=0;outlineConnect=0;fontColor=#232F3E;gradientColor=none;fillColor=#ED7100;strokeColor=none;dashed=0;verticalLabelPosition=bottom;verticalAlign=top;align=center;html=1;fontSize=12;fontStyle=0;aspect=fixed;pointerEvents=1;shape=mxgraph.aws4.lambda_function;" vertex="1" parent="e8v7B2R5iquHU8SgBQqi-15">
          <mxGeometry x="60.5" y="128" width="38" height="38" as="geometry" />
        </mxCell>
        <mxCell id="e8v7B2R5iquHU8SgBQqi-17" value="SNS" style="sketch=0;points=[[0,0,0],[0.25,0,0],[0.5,0,0],[0.75,0,0],[1,0,0],[0,1,0],[0.25,1,0],[0.5,1,0],[0.75,1,0],[1,1,0],[0,0.25,0],[0,0.5,0],[0,0.75,0],[1,0.25,0],[1,0.5,0],[1,0.75,0]];outlineConnect=0;fontColor=#232F3E;fillColor=#E7157B;strokeColor=#ffffff;dashed=0;verticalLabelPosition=bottom;verticalAlign=top;align=center;html=1;fontSize=10;fontStyle=0;aspect=fixed;shape=mxgraph.aws4.resourceIcon;resIcon=mxgraph.aws4.sns;spacingTop=-4;" vertex="1" parent="e8v7B2R5iquHU8SgBQqi-7">
          <mxGeometry x="492" y="80.5" width="50.5" height="50.5" as="geometry" />
        </mxCell>
        <mxCell id="e8v7B2R5iquHU8SgBQqi-33" style="edgeStyle=orthogonalEdgeStyle;rounded=0;orthogonalLoop=1;jettySize=auto;html=1;exitX=0;exitY=0.5;exitDx=0;exitDy=0;exitPerimeter=0;entryX=1;entryY=0.5;entryDx=0;entryDy=0;strokeWidth=2;strokeColor=#4D4D4D;" edge="1" parent="e8v7B2R5iquHU8SgBQqi-7" source="e8v7B2R5iquHU8SgBQqi-18" target="e8v7B2R5iquHU8SgBQqi-20">
          <mxGeometry relative="1" as="geometry" />
        </mxCell>
        <mxCell id="e8v7B2R5iquHU8SgBQqi-18" value="SQS" style="sketch=0;points=[[0,0,0],[0.25,0,0],[0.5,0,0],[0.75,0,0],[1,0,0],[0,1,0],[0.25,1,0],[0.5,1,0],[0.75,1,0],[1,1,0],[0,0.25,0],[0,0.5,0],[0,0.75,0],[1,0.25,0],[1,0.5,0],[1,0.75,0]];outlineConnect=0;fontColor=#232F3E;fillColor=#E7157B;strokeColor=#ffffff;dashed=0;verticalLabelPosition=bottom;verticalAlign=top;align=center;html=1;fontSize=10;fontStyle=0;aspect=fixed;shape=mxgraph.aws4.resourceIcon;resIcon=mxgraph.aws4.sqs;spacingTop=-4;" vertex="1" parent="e8v7B2R5iquHU8SgBQqi-7">
          <mxGeometry x="394" y="80" width="51" height="51" as="geometry" />
        </mxCell>
        <mxCell id="e8v7B2R5iquHU8SgBQqi-19" value="" style="group" vertex="1" connectable="0" parent="e8v7B2R5iquHU8SgBQqi-7">
          <mxGeometry x="212" y="18.25" width="120" height="175" as="geometry" />
        </mxCell>
        <mxCell id="e8v7B2R5iquHU8SgBQqi-20" value="" style="rounded=1;whiteSpace=wrap;html=1;fillColor=#ffe6cc;strokeColor=#d79b00;" vertex="1" parent="e8v7B2R5iquHU8SgBQqi-19">
          <mxGeometry width="120" height="175" as="geometry" />
        </mxCell>
        <mxCell id="e8v7B2R5iquHU8SgBQqi-21" value="" style="sketch=0;outlineConnect=0;fontColor=#232F3E;gradientColor=none;fillColor=#ED7100;strokeColor=none;dashed=0;verticalLabelPosition=bottom;verticalAlign=top;align=center;html=1;fontSize=12;fontStyle=0;aspect=fixed;pointerEvents=1;shape=mxgraph.aws4.lambda_function;" vertex="1" parent="e8v7B2R5iquHU8SgBQqi-19">
          <mxGeometry x="19.5" y="14" width="38" height="38" as="geometry" />
        </mxCell>
        <mxCell id="e8v7B2R5iquHU8SgBQqi-22" value="" style="sketch=0;outlineConnect=0;fontColor=#232F3E;gradientColor=none;fillColor=#ED7100;strokeColor=none;dashed=0;verticalLabelPosition=bottom;verticalAlign=top;align=center;html=1;fontSize=12;fontStyle=0;aspect=fixed;pointerEvents=1;shape=mxgraph.aws4.lambda_function;" vertex="1" parent="e8v7B2R5iquHU8SgBQqi-19">
          <mxGeometry x="60.5" y="52" width="38" height="38" as="geometry" />
        </mxCell>
        <mxCell id="e8v7B2R5iquHU8SgBQqi-23" value="" style="sketch=0;outlineConnect=0;fontColor=#232F3E;gradientColor=none;fillColor=#ED7100;strokeColor=none;dashed=0;verticalLabelPosition=bottom;verticalAlign=top;align=center;html=1;fontSize=12;fontStyle=0;aspect=fixed;pointerEvents=1;shape=mxgraph.aws4.lambda_function;" vertex="1" parent="e8v7B2R5iquHU8SgBQqi-19">
          <mxGeometry x="22.5" y="90" width="38" height="38" as="geometry" />
        </mxCell>
        <mxCell id="e8v7B2R5iquHU8SgBQqi-24" value="" style="sketch=0;outlineConnect=0;fontColor=#232F3E;gradientColor=none;fillColor=#ED7100;strokeColor=none;dashed=0;verticalLabelPosition=bottom;verticalAlign=top;align=center;html=1;fontSize=12;fontStyle=0;aspect=fixed;pointerEvents=1;shape=mxgraph.aws4.lambda_function;" vertex="1" parent="e8v7B2R5iquHU8SgBQqi-19">
          <mxGeometry x="60.5" y="128" width="38" height="38" as="geometry" />
        </mxCell>
        <mxCell id="e8v7B2R5iquHU8SgBQqi-25" style="edgeStyle=orthogonalEdgeStyle;rounded=0;orthogonalLoop=1;jettySize=auto;html=1;exitX=0;exitY=0.5;exitDx=0;exitDy=0;entryX=1;entryY=0.5;entryDx=0;entryDy=0;entryPerimeter=0;strokeWidth=2;strokeColor=#4D4D4D;" edge="1" parent="e8v7B2R5iquHU8SgBQqi-7" source="e8v7B2R5iquHU8SgBQqi-14" target="e8v7B2R5iquHU8SgBQqi-17">
          <mxGeometry relative="1" as="geometry" />
        </mxCell>
        <mxCell id="e8v7B2R5iquHU8SgBQqi-32" style="edgeStyle=orthogonalEdgeStyle;rounded=0;orthogonalLoop=1;jettySize=auto;html=1;exitX=0;exitY=0.5;exitDx=0;exitDy=0;exitPerimeter=0;entryX=1;entryY=0.5;entryDx=0;entryDy=0;entryPerimeter=0;strokeWidth=2;strokeColor=#4D4D4D;" edge="1" parent="e8v7B2R5iquHU8SgBQqi-7" source="e8v7B2R5iquHU8SgBQqi-17" target="e8v7B2R5iquHU8SgBQqi-18">
          <mxGeometry relative="1" as="geometry" />
        </mxCell>
        <mxCell id="h2PM3oMP3MXxl9iQ3OsZ-67" value="DynamoDB" style="outlineConnect=0;dashed=0;verticalLabelPosition=bottom;verticalAlign=top;align=center;html=1;shape=mxgraph.aws3.dynamo_db;fillColor=#2E73B8;gradientColor=none;spacingTop=-6;" parent="e8v7B2R5iquHU8SgBQqi-7" vertex="1">
          <mxGeometry x="73" y="59" width="54.22" height="61" as="geometry" />
        </mxCell>
        <mxCell id="e8v7B2R5iquHU8SgBQqi-36" value="" style="edgeStyle=orthogonalEdgeStyle;rounded=0;orthogonalLoop=1;jettySize=auto;html=1;strokeWidth=2;strokeColor=#4D4D4D;entryX=1;entryY=0.78;entryDx=0;entryDy=0;entryPerimeter=0;" edge="1" parent="e8v7B2R5iquHU8SgBQqi-7" source="e8v7B2R5iquHU8SgBQqi-20" target="h2PM3oMP3MXxl9iQ3OsZ-67">
          <mxGeometry relative="1" as="geometry" />
        </mxCell>
        <mxCell id="e8v7B2R5iquHU8SgBQqi-35" style="edgeStyle=orthogonalEdgeStyle;rounded=0;orthogonalLoop=1;jettySize=auto;html=1;exitX=1;exitY=0.75;exitDx=0;exitDy=0;entryX=1;entryY=0.22;entryDx=0;entryDy=0;entryPerimeter=0;strokeWidth=2;strokeColor=#4D4D4D;" edge="1" parent="1" source="h2PM3oMP3MXxl9iQ3OsZ-75" target="h2PM3oMP3MXxl9iQ3OsZ-67">
          <mxGeometry relative="1" as="geometry">
            <Array as="points">
              <mxPoint x="1160" y="649" />
              <mxPoint x="1160" y="927" />
              <mxPoint x="484" y="927" />
              <mxPoint x="484" y="1024" />
            </Array>
          </mxGeometry>
        </mxCell>
        <mxCell id="e8v7B2R5iquHU8SgBQqi-37" style="edgeStyle=orthogonalEdgeStyle;rounded=0;orthogonalLoop=1;jettySize=auto;html=1;exitX=1;exitY=0.5;exitDx=0;exitDy=0;entryX=1;entryY=0.5;entryDx=0;entryDy=0;entryPerimeter=0;strokeWidth=2;strokeColor=#4D4D4D;" edge="1" parent="1" source="h2PM3oMP3MXxl9iQ3OsZ-75" target="e8v7B2R5iquHU8SgBQqi-8">
          <mxGeometry relative="1" as="geometry">
            <Array as="points">
              <mxPoint x="1180" y="634" />
              <mxPoint x="1180" y="1058" />
            </Array>
          </mxGeometry>
        </mxCell>
      </root>
    </mxGraphModel>
  </diagram>
</mxfile>
